<svg width="16" height="19" viewBox="0 0 16 19" fill="none" xmlns="http://www.w3.org/2000/svg">
<path d="M8.0013 18.167C9.00963 18.167 9.83463 17.342 9.83463 16.3337H6.16797C6.16797 17.342 6.99297 18.167 8.0013 18.167ZM13.5013 12.667V8.08366C13.5013 5.26949 12.0071 2.91366 9.3763 2.29033V1.66699C9.3763 0.906159 8.76214 0.291992 8.0013 0.291992C7.24047 0.291992 6.6263 0.906159 6.6263 1.66699V2.29033C4.00464 2.91366 2.5013 5.26033 2.5013 8.08366V12.667L0.667969 14.5003V15.417H15.3346V14.5003L13.5013 12.667ZM11.668 13.5837H4.33464V8.08366C4.33464 5.81033 5.7188 3.95866 8.0013 3.95866C10.2838 3.95866 11.668 5.81033 11.668 8.08366V13.5837Z" fill="#2D2D2D"/>
</svg>
