<svg width="18" height="18" viewBox="0 0 18 18" fill="none" xmlns="http://www.w3.org/2000/svg">
<path d="M4.53763 6.35046C4.85737 6.03072 5.21207 5.76707 5.58934 5.55876C7.69204 4.39999 10.3883 5.01616 11.7401 7.06569L10.1043 8.70079C9.63523 7.63087 8.47063 7.02199 7.31185 7.28127C6.87558 7.37887 6.46116 7.59664 6.12248 7.93532L2.98774 11.0715C2.0358 12.0235 2.0358 13.5719 2.98774 14.5238C3.93967 15.4757 5.4881 15.4757 6.44004 14.5238L7.40653 13.5573C8.28563 13.9062 9.2281 14.0453 10.1589 13.9761L8.02562 16.1094C6.19677 17.9382 3.23173 17.9382 1.40288 16.1094C-0.425961 14.2806 -0.425961 11.3155 1.40288 9.48666L4.53763 6.35046ZM9.51652 1.37158L7.38323 3.50486C8.31331 3.43494 9.2565 3.57478 10.1356 3.92293L11.1014 2.95716C12.0533 2.00523 13.6017 2.00523 14.5537 2.95716C15.5056 3.90909 15.5056 5.45753 14.5537 6.40946L11.4182 9.54493C10.4633 10.4998 8.91273 10.4918 7.96589 9.54493C7.74521 9.32425 7.55511 9.04967 7.4364 8.77945L5.80056 10.4146C5.97245 10.6753 6.15089 10.9004 6.38031 11.1298C6.97172 11.7212 7.72482 12.1618 8.59153 12.3709C9.71462 12.6411 10.9178 12.4918 11.9513 11.9215C12.3286 11.7132 12.6833 11.4495 13.003 11.1298L16.1378 7.99431C17.9674 6.16547 17.9674 3.20042 16.1385 1.37158C14.3097 -0.456541 11.3454 -0.456541 9.51652 1.37158Z" fill="#A0A0A0"/>
</svg>
