<svg width="18" height="15" viewBox="0 0 18 15" fill="none" xmlns="http://www.w3.org/2000/svg">
<path d="M17.7222 2.31942C17.0791 2.60492 16.3879 2.7972 15.6625 2.88387C16.4032 2.44032 16.972 1.73748 17.2393 0.899895C16.5467 1.31068 15.779 1.60929 14.9618 1.77025C14.3085 1.07324 13.3755 0.637695 12.3442 0.637695C10.0288 0.637695 8.32742 2.79793 8.85036 5.04047C5.87075 4.89116 3.22835 3.46363 1.45923 1.29392C0.519683 2.90572 0.971978 5.01425 2.56848 6.08199C1.98145 6.06305 1.42791 5.90209 0.945029 5.63333C0.905699 7.29466 2.09652 8.84892 3.82122 9.19488C3.31648 9.33181 2.76368 9.36386 2.2014 9.25606C2.65734 10.6807 3.98145 11.7171 5.55174 11.7462C4.04409 12.9283 2.14459 13.4564 0.242188 13.232C1.82923 14.2495 3.71488 14.8431 5.73965 14.8431C12.3981 14.8431 16.1599 9.21965 15.9327 4.17594C16.6333 3.66975 17.2415 3.03828 17.7222 2.31942Z" fill="#A0A0A0"/>
</svg>
